<?xml version="1.0" encoding="utf-8"?>
<!-- Generator: Adobe Illustrator 22.0.0, SVG Export Plug-In . SVG Version: 6.00 Build 0)  -->
<svg version="1.1" id="Livello_1" xmlns="http://www.w3.org/2000/svg" xmlns:xlink="http://www.w3.org/1999/xlink" x="0px" y="0px"
	 viewBox="0 0 850.4 236.3" style="enable-background:new 0 0 850.4 236.3;" xml:space="preserve">
<style type="text/css">
	.st0{fill:#888786;}
	.st1{fill:#EF7D00;}
</style>
<g>
	<path class="st0" d="M386.7,143.4c-0.5,0-72-0.5-72.3-0.8c-5.7-0.1-10.5,0.2-14.7,0.5c-4.1,0.3-7.6,0.5-10.8,0.3
		c-0.4,0-0.7-0.2-0.9-0.3c-0.6,0-1.1,0-1.6,0.1c-0.9,0.1-1.7,0.1-2.6,0.2c-0.4,0-0.7,0-1-0.2c-2.1,0-7.5-0.1-15.3-0.3
		c-35.4-0.6-119-1.9-163.4-3.4c-6.5,0.2-11.8,0.3-13.8,0.2v0c-0.3,0-0.6-0.1-0.8-0.2c-2.8,0-8.2-0.1-10.9-0.2l-1.6,0l0-0.2
		c0-0.1,0-0.2,0-0.4l0-0.6c-0.9-0.1-1.5-0.2-1.8-0.3l-0.1,0c-0.3-1.3,0.2-2,1.6-2.2c0.1,0,0.3,0,0.4,0l1.5,0
		c3.3,0.1,10.7,0.2,12.3,0.2c0.3,0,0.7,0.1,0.9,0.2c2.8,0,7.9-0.1,13.8-0.2c10.8-0.3,32.2-1.2,37.7-1.4c1.7-0.1,3.4-0.2,5.2-0.2
		c0.2,0,0.5,0,0.7,0.1c7.7-0.2,28.7-0.5,47.5-0.5c14.4,0,27.4,0,32.1,0.4c0.1,0,0.3,0,0.4,0.1c22.3,0.2,242.1,0.2,304.4,0.3l16.4,0
		c0.4,0,0.9,0.2,1.2,0.4c0.2,0,0.3,0.1,0.5,0.1h0.3h0c69.4,0.5,118.4,1.1,152,1.5c7.1-0.9,19.6-1.2,32-1.3
		c13.8-0.1,27.5,0.6,33.7,1.4c0.3-0.6,0.9-1,1.7-1c1,0,1.8,0.8,1.8,1.9v0c0,0.4-8.6,1-31.9,1.4c-1.8,0-3.5,0.1-5.3,0.1l-2.1,0
		c-4.2,0.1-8.8,0.1-13.7,0.1c-8.4,0.1-15.1,0.3-17.7,0.5c0,0.3-0.1,0.6-0.2,1c-0.8,1.7-7.3,1.2-15.6,0.7c-12.4-0.9-29.3-2-30.6-0.3
		c-2.8,4-7.8,3.1-12.7,2.3c-2-0.3-3.9-0.7-5.5-0.6c-0.5,0-0.9-0.2-1.3-0.5l-2.5-0.1c-0.3,0-0.6-0.1-0.8-0.2
		c-0.7-0.1-1.9-0.1-3.2-0.2c-0.3,0-0.6-0.1-0.8-0.2c-8.6-2.2-23.5-0.8-35.5,0.4c-7.7,0.8-14.3,1.4-17.4,0.8c-0.2,0-0.4-0.1-0.6-0.2
		c-21-0.2-44,0.1-67.7,0.5c-26.3,0.4-53.5,0.8-79.5,0.5c-0.3,0-0.5-0.1-0.8-0.2C420.8,143.2,404.1,143.3,386.7,143.4"/>
	<path class="st1" d="M644.1,52.6v44.2c0,3.1-1.1,5.8-3.4,8c-2.3,2.2-5.1,3.3-8.6,3.3V34c0-3.1,1.1-5.8,3.4-8
		c2.3-2.2,5.1-3.3,8.6-3.3v20.9c1.6-0.9,3.4-1.6,5.3-2.2c1.9-0.5,3.9-0.8,5.9-0.8h8.7c0,3.5-1.1,6.3-3.3,8.6
		c-2.2,2.3-4.8,3.4-7.9,3.4H644.1z M601.5,63.9L601.5,63.9c0-3.1-1.1-5.8-3.3-8c-2.2-2.2-4.8-3.3-8-3.3h-51.9l0.2,32.3
		c0,3.1,1.1,5.8,3.2,8c2.1,2.2,4.8,3.3,7.9,3.3h51.8V63.9z M590.3,40.7c3.2,0,6.2,0.6,9,1.9c2.8,1.2,5.2,2.9,7.4,5
		c2.1,2.1,3.8,4.6,5,7.3c1.2,2.8,1.9,5.8,1.9,9v21c0,3.2-0.6,6.2-1.9,9.1c-1.2,2.8-2.9,5.3-5,7.4c-2.1,2.1-4.6,3.7-7.4,4.9
		c-2.8,1.2-5.8,1.8-9,1.8h-40.7c-3.2,0-6.2-0.6-9.1-1.8c-2.9-1.2-5.3-2.8-7.4-4.9c-2.1-2.1-3.8-4.6-4.9-7.4
		c-1.2-2.8-1.8-5.9-1.8-9.1v-21c0-3.2,0.6-6.2,1.8-9c1.2-2.8,2.8-5.2,4.9-7.3c2.1-2.1,4.6-3.8,7.4-5c2.8-1.2,5.9-1.9,9.1-1.9H590.3z
		 M496,108.1V63.9c0-3.1-1.1-5.8-3.2-7.9c-2.2-2.1-4.8-3.2-7.9-3.2H452v44.1c0,1.9-0.4,3.5-1.2,4.9c-0.8,1.4-1.7,2.6-2.9,3.5
		c-1.1,0.9-2.4,1.6-3.9,2.1c-1.4,0.5-2.8,0.7-4,0.7V63.9c0-3.1-1.1-5.8-3.3-7.9c-2.2-2.1-4.8-3.2-8-3.2h-32.8v44.1
		c0,1.9-0.4,3.5-1.2,4.9c-0.8,1.4-1.8,2.6-3,3.5c-1.2,0.9-2.5,1.6-3.9,2.1c-1.4,0.5-2.8,0.7-4.1,0.7V63.9c0-3.2,0.6-6.2,1.8-9
		c1.2-2.8,2.8-5.3,4.9-7.4c2.1-2.1,4.6-3.8,7.4-5c2.8-1.2,5.9-1.9,9.1-1.9h21.6c3.5,0,6.6,0.7,9.6,2.1c2.9,1.4,5.5,3.3,7.6,5.7
		c2.1-2.4,4.7-4.3,7.7-5.7c3-1.4,6.2-2.1,9.6-2.1h21.6c3.2,0,6.2,0.6,9,1.9c2.8,1.2,5.3,2.9,7.4,5c2.1,2.1,3.8,4.6,4.9,7.4
		c1.2,2.8,1.8,5.8,1.8,9v33c0,1.9-0.4,3.5-1.2,4.9c-0.8,1.4-1.7,2.6-2.9,3.5c-1.1,0.9-2.4,1.6-3.8,2.1
		C498.7,107.9,497.4,108.1,496,108.1z M692.2,96.9L692.2,96.9c-0.1,3.1-1.3,5.8-3.5,8c-2.3,2.2-5.1,3.3-8.6,3.3l0.1-51.6
		c0-3.1,1.1-5.8,3.4-8c2.3-2.2,5.1-3.3,8.6-3.3V96.9z M680.1,29.2c0.1-3.1,1.3-5.8,3.5-8c2.3-2.2,5.1-3.3,8.6-3.3v11.2H680.1z
		 M290.4,68.2L290.4,68.2h63V64c0-3.1-1.1-5.8-3.2-8c-2.2-2.2-4.8-3.3-7.9-3.3h-51.9V68.2z M290.4,80.2V85c0,3.1,1.1,5.8,3.2,7.9
		c2.1,2.1,4.8,3.2,7.9,3.2h51.2c3.1,0.1,5.8,1.3,8,3.5c2.2,2.3,3.3,5.1,3.3,8.6h-62.4c-3.2,0-6.2-0.6-9-1.9c-2.8-1.2-5.3-2.9-7.4-5
		c-2.1-2.1-3.8-4.6-4.9-7.4c-1.2-2.8-1.8-5.8-1.8-9V64c0-3.2,0.6-6.2,1.8-9c1.2-2.8,2.8-5.3,4.9-7.3c2.1-2.1,4.5-3.8,7.4-5
		c2.8-1.2,5.8-1.9,9-1.9h40.8c3.2,0,6.2,0.6,9,1.9c2.8,1.2,5.3,2.9,7.4,5c2.1,2.1,3.7,4.6,4.9,7.3c1.2,2.8,1.8,5.8,1.8,9v16.2H290.4
		z M238.4,26.4c0-3.1,1.1-5.8,3.4-8c2.3-2.2,5.1-3.3,8.6-3.3V96h11.1v12.1c-3.2,0-6.2-0.6-9.1-1.9c-2.8-1.2-5.3-2.9-7.4-5
		c-2.1-2.1-3.8-4.6-4.9-7.4c-1.2-2.8-1.8-5.8-1.8-9L238.4,26.4z M198.8,26.4c0-3.1,1.1-5.8,3.4-8c2.3-2.2,5.1-3.3,8.6-3.3V96h11.1
		v12.1c-3.2,0-6.2-0.6-9.1-1.9c-2.8-1.2-5.3-2.9-7.4-5c-2.1-2.1-3.7-4.6-4.9-7.4c-1.2-2.8-1.8-5.8-1.8-9L198.8,26.4z M180.2,96.9
		L180.2,96.9c-0.1,3.1-1.3,5.8-3.5,8c-2.3,2.2-5.1,3.3-8.6,3.3l0.1-51.6c0-3.1,1.1-5.8,3.4-8c2.3-2.2,5.1-3.3,8.6-3.3V96.9z
		 M168.1,29.2c0.1-3.1,1.3-5.8,3.5-8c2.3-2.2,5.1-3.3,8.6-3.3v11.2H168.1z M137.6,108.1V63.9c0-3.1-1.1-5.8-3.2-7.9
		c-2.1-2.1-4.8-3.2-7.9-3.2H93.6v44.1c0,1.9-0.4,3.5-1.2,4.9c-0.8,1.4-1.8,2.6-2.9,3.5c-1.2,0.9-2.5,1.6-3.9,2.1
		c-1.4,0.5-2.8,0.7-4,0.7V63.9c0-3.1-1.1-5.8-3.3-7.9c-2.2-2.1-4.9-3.2-8-3.2H37.7v44.1c0,1.9-0.4,3.5-1.2,4.9
		c-0.8,1.4-1.8,2.6-3,3.5c-1.2,0.9-2.5,1.6-3.9,2.1c-1.4,0.5-2.8,0.7-4.1,0.7V63.9c0-3.2,0.6-6.2,1.8-9c1.2-2.8,2.8-5.3,5-7.4
		c2.1-2.1,4.6-3.8,7.4-5c2.8-1.2,5.9-1.9,9.1-1.9h21.6c3.5,0,6.7,0.7,9.6,2.1c2.9,1.4,5.5,3.3,7.6,5.7c2.1-2.4,4.7-4.3,7.7-5.7
		c3-1.4,6.2-2.1,9.6-2.1h21.6c3.2,0,6.2,0.6,9,1.9c2.8,1.2,5.3,2.9,7.3,5c2.1,2.1,3.8,4.6,5,7.4c1.2,2.8,1.8,5.8,1.8,9v33
		c0,1.9-0.4,3.5-1.2,4.9c-0.8,1.4-1.8,2.6-2.9,3.5c-1.2,0.9-2.4,1.6-3.8,2.1C140.3,107.9,139,108.1,137.6,108.1z M822.6,96.9
		L822.6,96.9c-0.1,3.1-1.3,5.8-3.5,8c-2.3,2.2-5.1,3.3-8.6,3.3l0.1-51.6c0-3.1,1.1-5.8,3.4-8c2.3-2.2,5.1-3.3,8.6-3.3V96.9z
		 M810.4,29.2c0.1-3.1,1.3-5.8,3.5-8c2.3-2.2,5.1-3.3,8.6-3.3v11.2H810.4z M751,93.5L773.3,52c2.1-4.2,4.7-7.1,7.7-8.8
		c3-1.7,6.5-2.5,10.6-2.5l-35,67.4h-11.2l-34.7-67.4c4,0,7.5,0.8,10.6,2.5c3,1.6,5.6,4.6,7.7,8.8L751,93.5z"/>
	<path class="st1" d="M682.7,183.4c9.3,0,14.2,0.5,17,1.5c4.2,1.6,5.8,4.7,5.8,11.4c0,6.2-1.3,9.4-4.4,11.1c-2.9,1.6-7,2.1-17.1,2.1
		c-8.5,0-13-0.4-16-1.2c-4.9-1.5-6.7-4.7-6.7-11.7c0-6.3,1.5-9.7,4.9-11.4C669,183.9,673.2,183.4,682.7,183.4 M681.4,178.6
		c-10.5,0-15.7,0.6-19.4,2.3c-5.6,2.5-8.3,7.4-8.3,15.4c0,8.7,2.4,13.3,8.5,15.8c4,1.7,9.6,2.3,22.4,2.3c11.9,0,17-0.6,20.9-2.5
		c5.3-2.6,7.6-7.2,7.6-15.4c0-8.3-2.4-12.9-8.1-15.5C701.3,179.1,695.5,178.6,681.4,178.6z M587,179v34.9h7.1v-16.1
		c0-6.6,0.5-8.3,2.6-10.3c3.1-2.9,8.8-4.1,19.9-4.1c9.8,0,14.3,0.8,16.7,3c2,1.8,2.5,3.9,2.5,10.2v17.3h7.1v-19.7
		c0-6.6-1-9.5-3.7-11.8c-3.5-2.9-8.9-3.8-21.8-3.8c-14.8,0-19.7,1.2-22.7,5.7h-0.6V179H587z M546.6,183.4c17.3,0,21,2,21,11.7
		c0,6-1.4,9.2-4.9,10.9c-2.6,1.3-7.5,1.8-17.1,1.8c-8.5,0-13.5-0.5-16-1.4c-4.1-1.5-5.9-4.9-5.9-10.8c0-5.6,1.8-9.2,5.3-10.5
		C532.1,183.9,537.3,183.4,546.6,183.4z M567.7,179l0.1,4.4h-0.5c-1.2-1.5-2.3-2.3-4.5-3.2c-2.9-1.3-6.5-1.7-16.2-1.7
		c-11.9,0-17.3,0.5-21.2,2c-6.2,2.3-9.2,7.1-9.2,15c0,7.1,2.2,11.5,7.1,14.3c3.5,2,9.7,2.8,21.9,2.8c14.5,0,18.1-0.8,22-4.5h0.5
		c-0.4,7.2-0.8,8.9-2.8,10.8c-2.4,2.4-7.6,3.2-21.2,3.2c-14.5,0-18.4-1.4-18.9-6.5h-7.4v0.4c0,3.3,1,5.3,3.4,7.1
		c3.8,2.8,10.1,3.8,23.6,3.8c11,0,16-0.3,20.2-1.4c4.7-1.1,8.4-4.3,9.3-7.9c0.7-2.7,1.1-7.2,1.1-12.5V179H567.7z M456.3,192.9
		c0.8-7.8,4.6-9.6,20.2-9.6c17.5,0,21.9,1.9,22,9.6H456.3z M498.8,203.1c-0.3,2.3-0.5,2.9-1.7,3.8c-2.3,2-6.3,2.6-16.6,2.6
		c-13.4,0-18.4-0.7-21.1-2.9c-2.1-1.7-3.1-4.4-3.3-9h50.3c-0.2-8.3-1.2-11.4-4.6-14.5c-4.1-3.6-9.6-4.7-25.1-4.7
		c-11.2,0-16.5,0.6-20.3,2.3c-5.5,2.5-8,7.4-8,15.7c0,7.5,2.2,12.3,6.8,14.8c4,2.2,11.1,3,26.1,3c18.3,0,24.6-2.9,24.9-11.2H498.8z
		 M407.6,183.3c9.6,0,14.5,0.5,17.2,1.5c4.2,1.7,5.8,5,5.8,11.7c0,10.6-3.5,13-19.5,13c-10.8,0-16.1-0.5-18.9-1.5
		c-4.2-1.7-5.6-4.5-5.6-11.5C386.7,185.3,389.9,183.3,407.6,183.3z M379.8,163.6v50.2h7v-4.4h0.4c3.4,4.1,7.1,4.9,21.4,4.9
		c11.4,0,16.2-0.4,20-1.7c6.8-2.3,9.6-6.9,9.6-15.7c0-8.4-2-12.8-7.2-15.7c-4-2.2-8.9-2.8-23.6-2.8c-12.9,0-16.8,0.9-20.1,4.7h-0.5
		v-19.5H379.8z M322.2,179v34.9h7.1v-16.1c0-12.2,3-14.4,20.2-14.4c11.1,0,13.5,1.6,13.5,8.8v2.5h7.3v-3.6c0-4.5-1.6-7.8-4.6-9.9
		c-3-2-6.7-2.6-15.5-2.6c-8.8,0-12.7,0.4-15.4,1.4c-2.3,1-3.9,2.1-5.1,3.7h-0.5V179H322.2z M280.6,183.4c9.3,0,14.2,0.5,17,1.5
		c4.2,1.6,5.8,4.7,5.8,11.4c0,6.2-1.3,9.4-4.4,11.1c-2.9,1.6-7,2.1-17.1,2.1c-8.5,0-13-0.4-16-1.2c-4.9-1.5-6.7-4.7-6.7-11.7
		c0-6.3,1.5-9.7,4.9-11.4C266.9,183.9,271.1,183.4,280.6,183.4z M279.3,178.6c-10.5,0-15.7,0.6-19.4,2.3c-5.6,2.5-8.3,7.4-8.3,15.4
		c0,8.7,2.4,13.3,8.5,15.8c4,1.7,9.6,2.3,22.4,2.3c11.9,0,17-0.6,20.9-2.5c5.3-2.6,7.6-7.2,7.6-15.4c0-8.3-2.4-12.9-8.1-15.5
		C299.2,179.1,293.4,178.6,279.3,178.6z M134.9,163.6v50.2h8.7v-44h3.8l36.6,44h7l36.2-44h3.6v44h8.7v-50.2h-17.4l-34.6,42.6
		l-35.3-42.6H134.9z"/>
</g>
</svg>
